<?xml version="1.0" standalone="no"?>
<!DOCTYPE svg PUBLIC "-//W3C//DTD SVG 20010904//EN"
 "http://www.w3.org/TR/2001/REC-SVG-20010904/DTD/svg10.dtd">
<svg version="1.0" xmlns="http://www.w3.org/2000/svg"
 width="666.000000pt" height="666.000000pt" viewBox="0 0 666.000000 666.000000"
 preserveAspectRatio="xMidYMid meet">
<metadata>
Created by potrace 1.14, written by Peter Selinger 2001-2017
</metadata>
<g transform="translate(0.000000,666.000000) scale(0.100000,-0.100000)"
fill="#000000" stroke="none">
<path d="M3705 5099 c-4 -5 -9 -30 -11 -53 -8 -96 -22 -134 -65 -175 -26 -26
-30 -33 -19 -46 18 -22 33 -19 69 15 29 28 69 105 63 123 -4 15 15 6 37 -17
48 -51 146 -72 239 -52 17 4 32 4 33 -1 4 -78 10 -98 35 -124 15 -15 32 -27
38 -26 6 1 10 -7 9 -18 -4 -33 18 -103 34 -110 22 -8 45 14 38 36 -10 30 -13
73 -7 84 15 25 7 38 -33 55 -53 23 -61 44 -45 122 19 86 7 92 -95 47 -29 -13
-90 -18 -131 -12 -42 7 -103 65 -129 122 -18 40 -46 54 -60 30z"/>
<path d="M2392 4988 c-59 -105 -111 -129 -209 -96 -32 11 -62 24 -68 29 -15
15 -55 10 -62 -7 -3 -8 5 -38 17 -65 34 -71 30 -122 -13 -167 -43 -45 -36 -59
33 -64 45 -3 66 -10 84 -27 28 -26 56 -22 56 8 0 20 -47 62 -83 74 -14 5 -16
11 -8 25 14 27 19 85 9 105 -15 29 -1 37 45 23 69 -20 145 2 205 61 19 19 27
16 40 -11 6 -13 27 -37 47 -52 36 -27 38 -27 51 -9 19 25 18 32 -7 45 -31 17
-59 71 -59 116 0 40 -13 64 -36 64 -7 0 -26 -24 -42 -52z"/>
<path d="M2969 4995 c-3 -2 -16 -6 -29 -9 -68 -14 -198 -47 -217 -55 -16 -7
-20 -16 -16 -31 7 -25 12 -25 183 17 95 23 119 34 120 55 0 9 -36 29 -41 23z"/>
<path d="M3282 4854 c-9 -6 -13 -18 -9 -28 5 -14 25 -16 131 -16 126 0 147 6
126 40 -10 16 -226 20 -248 4z"/>
<path d="M3065 4799 c-27 -4 -66 -10 -85 -13 -34 -5 -108 -18 -122 -22 -5 -1
-19 -2 -32 -3 -22 -1 -23 -4 -16 -38 5 -21 11 -60 14 -88 4 -27 8 -61 11 -75
5 -29 16 -108 30 -210 14 -100 17 -117 22 -134 7 -26 -8 -19 -113 49 -91 60
-87 59 -134 15 -54 -50 -92 -81 -95 -78 -4 5 -15 132 -17 214 l-2 70 -131 -2
c-71 -2 -141 -3 -154 -3 l-23 -1 7 -102 c4 -57 8 -121 10 -143 1 -22 5 -74 9
-115 3 -41 8 -110 11 -153 l6 -78 -163 1 c-90 0 -173 1 -186 0 -16 0 -23 -5
-21 -17 3 -35 -1 -51 -13 -49 -25 3 -38 18 -38 42 0 13 -6 24 -12 25 -7 0 -24
2 -38 4 -14 2 -43 5 -66 6 -38 2 -40 4 -36 31 3 19 0 28 -9 29 -33 3 -102 -1
-106 -5 -12 -12 -8 -42 6 -48 11 -6 9 -7 -9 -6 -55 3 -152 -35 -196 -76 -53
-51 -68 -103 -61 -206 4 -61 13 -93 50 -171 54 -115 100 -164 201 -213 39 -19
85 -47 101 -61 l30 -27 -30 17 c-16 10 -39 24 -49 31 -22 15 -56 2 -56 -21 0
-20 -44 -12 -164 29 l-96 34 0 -153 c0 -126 3 -154 15 -159 8 -3 12 -11 9 -19
-3 -8 2 -19 10 -26 7 -6 12 -19 9 -29 -3 -14 5 -18 59 -20 103 -6 231 -6 266
1 42 7 142 55 142 68 0 5 5 9 11 9 15 0 47 -78 54 -135 9 -75 14 -84 43 -91
51 -10 111 -43 129 -71 13 -19 18 -47 18 -96 0 -52 4 -72 15 -77 93 -43 118
-60 145 -97 45 -62 88 -53 60 13 -16 38 -53 73 -111 105 -47 25 -48 27 -50 75
-2 62 -15 94 -54 134 -30 31 -108 72 -121 65 -3 -3 -12 23 -19 58 -6 34 -23
87 -37 118 -24 56 -24 57 -7 90 15 27 19 56 18 134 0 55 -2 107 -5 115 -3 8
-11 28 -18 44 -22 55 -7 54 69 -3 l75 -57 1 -89 c1 -50 7 -111 13 -137 9 -41
55 -154 68 -168 2 -2 32 -4 66 -5 54 0 62 -3 65 -20 12 -68 26 -95 83 -155 69
-74 149 -176 149 -190 0 -6 4 -10 8 -10 5 0 14 -10 21 -22 6 -13 19 -35 29
-50 81 -124 243 -429 366 -690 l37 -77 57 4 c31 2 93 11 137 20 44 9 94 18
110 21 17 2 41 7 55 10 14 3 39 8 55 11 30 5 65 29 65 44 0 5 25 61 55 124 30
64 55 118 55 120 0 9 159 330 203 410 63 114 98 158 145 182 40 21 131 51 171
56 19 3 35 23 70 84 61 107 91 143 111 134 22 -11 145 -8 148 4 1 6 -3 33 -10
60 -7 28 -13 53 -14 58 -1 4 -2 8 -4 10 -1 1 -3 12 -4 24 -2 21 43 83 61 83 4
0 23 -35 42 -78 19 -42 38 -81 42 -86 5 -5 -12 -46 -37 -92 -24 -45 -60 -129
-78 -186 l-34 -103 -42 -2 c-63 -4 -143 -44 -168 -84 -11 -19 -27 -60 -35 -93
-11 -38 -23 -63 -39 -74 -49 -33 -148 -139 -148 -159 0 -42 28 -32 97 35 62
60 80 76 120 100 6 4 14 21 17 37 20 109 34 137 81 159 19 10 58 19 85 21 68
5 90 13 90 34 0 45 116 341 133 341 2 0 19 -8 39 -19 60 -30 117 -15 168 46
18 21 29 32 25 25 -4 -9 0 -15 12 -18 14 -4 19 -12 16 -27 -4 -21 -2 -22 94
-22 l98 0 -4 25 c-1 14 -7 32 -11 40 -5 9 -15 49 -23 90 -16 76 -17 321 -2
385 4 17 8 41 9 55 2 29 19 62 32 62 11 0 53 16 67 25 19 12 0 -282 -27 -417
-14 -69 -29 -135 -32 -147 -5 -17 -2 -23 10 -23 12 0 15 -6 10 -25 -5 -19 -2
-25 10 -25 10 0 15 -8 13 -22 -2 -21 2 -21 96 -23 104 -1 106 0 86 52 -6 15
-13 37 -15 48 -14 61 -21 105 -18 108 2 2 6 27 9 56 4 42 37 131 48 131 1 0 2
-24 1 -52 -1 -29 1 -57 5 -63 3 -5 7 -17 8 -26 1 -8 19 -50 39 -93 47 -98 94
-140 178 -159 90 -21 91 -19 90 116 -1 63 -5 121 -10 128 -5 8 -9 16 -10 19
-1 3 -5 20 -9 38 -10 41 -16 45 -87 47 -32 1 -61 5 -65 9 -3 3 2 6 12 6 38 0
126 70 140 113 11 32 20 17 21 -35 2 -95 15 -140 70 -253 59 -120 124 -174
239 -200 68 -15 197 -7 217 13 12 12 11 217 -1 239 -18 34 -27 63 -30 92 -1
11 -5 11 -19 -2 -10 -10 -21 -17 -25 -17 -3 0 -18 -5 -34 -12 -15 -6 -30 -12
-33 -12 -3 -1 -11 -5 -17 -9 -7 -5 -13 -6 -13 -4 0 3 -21 -1 -47 -9 -61 -19
-174 -28 -191 -16 -19 13 13 73 70 133 36 38 52 47 91 52 56 8 94 26 142 69
50 43 55 28 9 -22 -43 -46 -68 -60 -129 -69 -47 -7 -49 -27 -1 -24 50 4 97 27
144 73 50 49 58 29 10 -26 -34 -38 -103 -74 -144 -74 -15 0 -24 -6 -24 -15 0
-10 7 -14 23 -11 12 3 22 5 22 6 0 1 8 3 18 5 36 7 82 34 113 67 55 58 63 84
50 173 -7 48 -59 211 -72 224 -3 3 -54 6 -112 6 -99 0 -111 -2 -154 -27 -55
-33 -125 -111 -134 -150 -3 -16 -9 -28 -13 -28 -6 0 -36 91 -46 140 -6 27 -33
61 -56 71 -67 27 -160 -23 -221 -118 -18 -29 -35 -53 -38 -53 -3 0 0 57 6 128
10 108 10 199 3 249 -1 7 -8 14 -15 17 -7 3 -11 14 -9 26 4 22 1 22 -100 22
-123 -1 -115 2 -104 -34 6 -18 12 -44 15 -58 3 -14 9 -41 14 -60 16 -58 16
-59 -51 -53 -75 5 -153 34 -196 70 l-32 28 -213 -1 c-117 0 -219 2 -225 4 -10
3 -12 41 -9 153 3 131 1 149 -13 150 -9 0 -76 1 -148 1 -89 1 -133 5 -134 12
-1 6 -2 85 -3 176 -1 91 -4 170 -8 175 -4 7 -55 10 -132 10 -83 -1 -127 2
-128 9 0 6 -2 20 -2 31 -1 11 -4 25 -8 30 -5 8 -265 13 -309 6 -3 -1 -5 -34
-3 -73 3 -81 6 -277 5 -294 -1 -11 -145 -13 -156 -3 -6 7 -11 30 -21 94 -9 66
-54 367 -58 395 -18 113 -17 110 -39 109 -12 -1 -44 -5 -72 -10z m-1510 -1251
c1 -13 3 -26 4 -29 0 -4 11 -9 23 -12 37 -10 16 -16 -75 -23 -112 -8 -114 10
-7 70 49 27 52 27 55 -6z m3278 -148 c-28 -12 -30 -20 -3 -13 26 7 25 -1 -7
-56 -24 -42 -139 -161 -155 -161 -4 0 -28 -14 -55 -30 -56 -35 -105 -51 -123
-40 -17 11 54 114 112 161 56 45 134 99 145 99 5 0 24 11 43 25 19 14 41 25
49 24 10 0 7 -4 -6 -9z m648 -38 c-15 -29 -78 -76 -138 -103 -28 -13 -49 -27
-47 -31 3 -4 1 -8 -5 -8 -14 0 -21 14 -13 26 4 6 39 27 77 47 39 20 84 50 100
66 33 32 42 33 26 3z m-80 -6 c-11 -13 -93 -56 -107 -56 -12 0 38 39 57 45 11
4 19 10 19 15 0 8 31 19 39 13 2 -1 -2 -9 -8 -17z m105 -34 c-14 -28 -73 -82
-88 -82 -4 0 -8 -7 -8 -16 0 -8 -5 -12 -10 -9 -6 4 -23 0 -38 -8 -16 -7 -37
-11 -47 -7 -16 5 -6 14 48 40 37 19 84 51 105 71 44 45 58 49 38 11z"/>
<path d="M2655 4777 c-3 -7 -3 -21 -1 -32 3 -11 5 -32 5 -47 1 -31 38 -49 52
-27 8 13 3 84 -7 100 -8 13 -45 17 -49 6z"/>
<path d="M3360 4730 c-16 -30 4 -41 84 -44 81 -3 111 9 100 39 -7 17 -4 16
-102 20 -59 2 -75 -1 -82 -15z"/>
<path d="M3977 4639 c-13 -8 -15 -14 -7 -30 6 -10 17 -19 25 -19 31 0 64 -24
80 -59 20 -45 51 -52 58 -13 7 34 -19 85 -52 104 -37 22 -83 29 -104 17z"/>
<path d="M2694 4565 c-6 -15 1 -79 11 -107 11 -28 35 -30 45 -4 10 27 -5 107
-23 118 -18 11 -27 10 -33 -7z"/>
<path d="M4092 4438 c-8 -14 -12 -49 -10 -88 3 -59 5 -65 26 -68 12 -2 22 0
23 5 10 91 8 132 -9 153 l-18 22 -12 -24z"/>
<path d="M2046 4402 c-3 -3 -16 -6 -28 -7 -13 -1 -26 -3 -29 -4 -16 -3 -16
-32 -2 -97 20 -96 20 -94 28 -144 10 -62 22 -82 48 -78 27 4 26 30 -7 178 -18
82 -16 93 19 97 48 6 57 12 53 35 -2 19 -10 23 -40 24 -21 1 -40 -1 -42 -4z"/>
<path d="M4251 4261 c-8 -5 -11 -16 -6 -30 6 -19 14 -21 75 -21 l69 0 3 -102
c3 -102 3 -103 28 -103 l25 0 3 119 c2 78 -1 123 -9 132 -13 16 -164 20 -188
5z"/>
<path d="M2119 4054 c-7 -9 -14 -25 -16 -37 -5 -32 -23 -47 -65 -54 -70 -11
-61 -52 10 -48 76 4 110 35 118 105 4 34 -28 57 -47 34z"/>
<path d="M1807 3959 c-9 -6 -17 -18 -17 -29 0 -36 102 -38 128 -3 10 14 9 19
-5 27 -24 13 -85 16 -106 5z"/>
<path d="M4535 3944 c-15 -15 -15 -18 -1 -32 11 -11 36 -15 95 -15 88 1 101 5
101 33 0 24 -19 30 -105 30 -55 0 -78 -4 -90 -16z"/>
<path d="M570 3876 c0 -6 5 -27 10 -46 16 -54 38 -169 46 -235 13 -108 6 -395
-11 -469 -3 -11 -7 -49 -9 -84 -3 -52 1 -72 24 -121 16 -33 26 -62 23 -64 -2
-3 7 -13 21 -22 28 -19 74 -23 126 -11 43 10 130 67 156 101 19 25 44 34 44
15 0 -5 6 -10 14 -10 9 0 12 -8 8 -25 -3 -18 0 -25 11 -25 10 0 13 -6 10 -20
-6 -23 -13 -22 130 -24 60 0 111 2 113 6 3 4 -4 35 -15 70 -11 35 -23 86 -26
113 -4 28 -9 66 -12 85 -12 75 -3 385 13 462 2 13 7 39 9 58 5 32 8 45 21 105
14 57 14 66 4 60 -6 -4 -10 6 -10 25 0 21 -4 29 -11 24 -9 -5 -10 1 -5 20 l6
26 -125 0 c-102 0 -125 -3 -125 -14 0 -8 4 -17 9 -20 5 -3 24 -43 42 -88 30
-74 33 -93 32 -173 -1 -71 -6 -103 -26 -152 -45 -112 -132 -207 -247 -270 -39
-22 -90 -37 -90 -27 0 3 31 63 69 133 77 140 111 228 118 311 6 61 -9 153 -31
203 -18 40 -31 80 -28 89 1 4 -64 6 -143 6 -99 -1 -145 -5 -145 -12z"/>
<path d="M1842 2538 c-16 -16 -15 -35 2 -45 8 -4 24 -25 36 -46 19 -32 22 -48
17 -97 -6 -68 1 -77 53 -75 103 5 144 -47 127 -160 -7 -51 -3 -57 55 -78 25
-10 67 -38 92 -62 48 -47 70 -55 80 -29 11 30 -60 103 -131 135 -35 15 -36 18
-33 61 1 15 -6 52 -14 83 -14 47 -22 58 -62 81 -25 15 -58 27 -74 26 -26 -1
-28 2 -33 53 -6 60 -23 99 -62 138 -31 30 -36 32 -53 15z"/>
<path d="M4547 2489 c-48 -39 -83 -94 -97 -151 l-11 -44 -63 -1 c-101 -1 -156
-39 -170 -118 -5 -28 -21 -44 -41 -45 -18 0 -77 -63 -91 -96 -18 -44 -18 -70
2 -78 21 -8 44 11 44 34 0 29 47 78 95 99 29 13 44 26 44 38 -2 75 31 107 113
108 35 1 70 -2 79 -6 22 -11 45 17 47 59 4 52 41 120 88 159 46 37 54 57 28
67 -24 9 -27 8 -67 -25z"/>
<path d="M2344 2235 c-4 -9 10 -39 32 -70 22 -31 46 -68 55 -83 18 -30 47 -41
60 -21 15 26 -91 188 -124 189 -10 0 -20 -7 -23 -15z"/>
<path d="M3817 1990 c-8 -12 -28 -60 -43 -107 -25 -78 -26 -85 -11 -101 13
-12 20 -13 28 -5 15 15 71 171 73 203 1 32 -27 38 -47 10z"/>
<path d="M2527 1948 c-17 -12 -16 -18 10 -88 28 -78 38 -92 63 -87 21 3 19 33
-8 102 -30 76 -42 90 -65 73z"/>
<path d="M2324 1856 c-8 -21 36 -147 53 -153 8 -3 21 1 28 8 11 12 10 23 -7
74 -11 33 -25 66 -31 73 -13 16 -36 15 -43 -2z"/>
</g>
</svg>
